<mxfile host="app.diagrams.net" agent="Mozilla/5.0 (Windows NT 10.0; Win64; x64) AppleWebKit/537.36 (KHTML, like Gecko) Chrome/131.0.0.0 Safari/537.36" version="26.0.6">
  <diagram name="Page-1" id="edf60f1a-56cd-e834-aa8a-f176f3a09ee4">
    <mxGraphModel dx="2215" dy="624" grid="1" gridSize="10" guides="1" tooltips="1" connect="1" arrows="1" fold="1" page="1" pageScale="1" pageWidth="1100" pageHeight="850" background="none" math="0" shadow="0">
      <root>
        <mxCell id="0" />
        <mxCell id="1" parent="0" />
        <mxCell id="MqRCWIQsL3sCiBY5EVq8-32" value="" style="rounded=0;whiteSpace=wrap;html=1;fillColor=none;" vertex="1" parent="1">
          <mxGeometry x="-480" y="140" width="340" height="810" as="geometry" />
        </mxCell>
        <mxCell id="60e70716793133e9-31" style="edgeStyle=orthogonalEdgeStyle;rounded=0;html=1;labelBackgroundColor=none;startSize=5;endArrow=classicThin;endFill=1;endSize=5;jettySize=auto;orthogonalLoop=1;strokeWidth=1;fontFamily=Verdana;fontSize=8" parent="1" source="60e70716793133e9-2" target="60e70716793133e9-5" edge="1">
          <mxGeometry relative="1" as="geometry" />
        </mxCell>
        <mxCell id="60e70716793133e9-2" value="Determine need to&amp;nbsp;&lt;div&gt;replenish value-add&amp;nbsp;&lt;/div&gt;&lt;div&gt;stock&lt;/div&gt;" style="shape=trapezoid;whiteSpace=wrap;html=1;rounded=0;shadow=1;labelBackgroundColor=none;strokeWidth=1;fontFamily=Verdana;fontSize=8;align=center;flipV=1;" parent="1" vertex="1">
          <mxGeometry x="100" y="120" width="120" height="60" as="geometry" />
        </mxCell>
        <mxCell id="60e70716793133e9-32" style="edgeStyle=orthogonalEdgeStyle;rounded=0;html=1;labelBackgroundColor=none;startSize=5;endArrow=classicThin;endFill=1;endSize=5;jettySize=auto;orthogonalLoop=1;strokeWidth=1;fontFamily=Verdana;fontSize=8" parent="1" source="60e70716793133e9-4" target="60e70716793133e9-5" edge="1">
          <mxGeometry relative="1" as="geometry" />
        </mxCell>
        <mxCell id="60e70716793133e9-4" value="Order a product that&lt;div&gt;requires value-add processing&lt;/div&gt;" style="rounded=0;whiteSpace=wrap;html=1;shadow=1;labelBackgroundColor=none;strokeWidth=1;fontFamily=Verdana;fontSize=8;align=center;" parent="1" vertex="1">
          <mxGeometry x="290" y="120" width="120" height="60" as="geometry" />
        </mxCell>
        <mxCell id="60e70716793133e9-33" value="Yes" style="edgeStyle=orthogonalEdgeStyle;rounded=0;html=1;labelBackgroundColor=none;startSize=5;endArrow=classicThin;endFill=1;endSize=5;jettySize=auto;orthogonalLoop=1;strokeWidth=1;fontFamily=Verdana;fontSize=8" parent="1" source="60e70716793133e9-5" target="60e70716793133e9-7" edge="1">
          <mxGeometry x="-0.7778" y="10" relative="1" as="geometry">
            <mxPoint as="offset" />
          </mxGeometry>
        </mxCell>
        <mxCell id="60e70716793133e9-37" value="No" style="edgeStyle=orthogonalEdgeStyle;rounded=0;html=1;labelBackgroundColor=none;startSize=5;endArrow=classicThin;endFill=1;endSize=5;jettySize=auto;orthogonalLoop=1;strokeWidth=1;fontFamily=Verdana;fontSize=8" parent="1" source="60e70716793133e9-5" target="60e70716793133e9-9" edge="1">
          <mxGeometry x="-0.5" y="10" relative="1" as="geometry">
            <mxPoint as="offset" />
          </mxGeometry>
        </mxCell>
        <mxCell id="60e70716793133e9-5" value="Frequently&lt;div&gt;performed&lt;/div&gt;&lt;div&gt;process?&lt;/div&gt;" style="rhombus;whiteSpace=wrap;html=1;rounded=0;shadow=1;labelBackgroundColor=none;strokeWidth=1;fontFamily=Verdana;fontSize=8;align=center;" parent="1" vertex="1">
          <mxGeometry x="200" y="220" width="100" height="60" as="geometry" />
        </mxCell>
        <mxCell id="60e70716793133e9-34" value="Yes" style="edgeStyle=orthogonalEdgeStyle;rounded=0;html=1;labelBackgroundColor=none;startSize=5;endArrow=classicThin;endFill=1;endSize=5;jettySize=auto;orthogonalLoop=1;strokeWidth=1;fontFamily=Verdana;fontSize=8" parent="1" source="60e70716793133e9-7" target="60e70716793133e9-8" edge="1">
          <mxGeometry x="-0.6667" y="10" relative="1" as="geometry">
            <mxPoint as="offset" />
          </mxGeometry>
        </mxCell>
        <mxCell id="60e70716793133e9-35" value="No" style="edgeStyle=orthogonalEdgeStyle;rounded=0;html=1;labelBackgroundColor=none;startSize=5;endArrow=classicThin;endFill=1;endSize=5;jettySize=auto;orthogonalLoop=1;strokeWidth=1;fontFamily=Verdana;fontSize=8" parent="1" source="60e70716793133e9-7" target="60e70716793133e9-10" edge="1">
          <mxGeometry x="-1" y="-10" relative="1" as="geometry">
            <mxPoint x="440" y="300" as="targetPoint" />
            <Array as="points" />
            <mxPoint as="offset" />
          </mxGeometry>
        </mxCell>
        <mxCell id="60e70716793133e9-7" value="New&amp;nbsp;&lt;div&gt;template&amp;nbsp;&lt;/div&gt;&lt;div&gt;needed?&lt;/div&gt;" style="rhombus;whiteSpace=wrap;html=1;rounded=0;shadow=1;labelBackgroundColor=none;strokeWidth=1;fontFamily=Verdana;fontSize=8;align=center;" parent="1" vertex="1">
          <mxGeometry x="390" y="220" width="100" height="60" as="geometry" />
        </mxCell>
        <mxCell id="60e70716793133e9-36" style="edgeStyle=orthogonalEdgeStyle;rounded=0;html=1;labelBackgroundColor=none;startSize=5;endArrow=classicThin;endFill=1;endSize=5;jettySize=auto;orthogonalLoop=1;strokeWidth=1;fontFamily=Verdana;fontSize=8" parent="1" source="60e70716793133e9-8" target="60e70716793133e9-10" edge="1">
          <mxGeometry relative="1" as="geometry">
            <Array as="points">
              <mxPoint x="600" y="290" />
              <mxPoint x="440" y="290" />
            </Array>
          </mxGeometry>
        </mxCell>
        <mxCell id="60e70716793133e9-8" value="Create work&amp;nbsp;&lt;div&gt;order template&lt;/div&gt;" style="rounded=1;whiteSpace=wrap;html=1;shadow=1;labelBackgroundColor=none;strokeWidth=1;fontFamily=Verdana;fontSize=8;align=center;" parent="1" vertex="1">
          <mxGeometry x="550" y="230" width="100" height="40" as="geometry" />
        </mxCell>
        <mxCell id="60e70716793133e9-38" style="edgeStyle=orthogonalEdgeStyle;rounded=0;html=1;labelBackgroundColor=none;startSize=5;endArrow=classicThin;endFill=1;endSize=5;jettySize=auto;orthogonalLoop=1;strokeWidth=1;fontFamily=Verdana;fontSize=8" parent="1" source="60e70716793133e9-9" target="60e70716793133e9-11" edge="1">
          <mxGeometry relative="1" as="geometry" />
        </mxCell>
        <mxCell id="60e70716793133e9-9" value="Create a work order" style="whiteSpace=wrap;html=1;rounded=0;shadow=1;labelBackgroundColor=none;strokeWidth=1;fontFamily=Verdana;fontSize=8;align=center;" parent="1" vertex="1">
          <mxGeometry x="190" y="320" width="120" height="40" as="geometry" />
        </mxCell>
        <mxCell id="60e70716793133e9-39" style="edgeStyle=orthogonalEdgeStyle;rounded=0;html=1;labelBackgroundColor=none;startSize=5;endArrow=classicThin;endFill=1;endSize=5;jettySize=auto;orthogonalLoop=1;strokeWidth=1;fontFamily=Verdana;fontSize=8" parent="1" source="60e70716793133e9-10" target="60e70716793133e9-12" edge="1">
          <mxGeometry relative="1" as="geometry" />
        </mxCell>
        <mxCell id="60e70716793133e9-10" value="Copy template&amp;nbsp;&lt;div&gt;to work order&lt;/div&gt;" style="whiteSpace=wrap;html=1;rounded=0;shadow=1;labelBackgroundColor=none;strokeWidth=1;fontFamily=Verdana;fontSize=8;align=center;" parent="1" vertex="1">
          <mxGeometry x="380" y="320" width="120" height="40" as="geometry" />
        </mxCell>
        <mxCell id="60e70716793133e9-41" style="edgeStyle=orthogonalEdgeStyle;rounded=0;html=1;labelBackgroundColor=none;startSize=5;endArrow=classicThin;endFill=1;endSize=5;jettySize=auto;orthogonalLoop=1;strokeWidth=1;fontFamily=Verdana;fontSize=8" parent="1" source="60e70716793133e9-11" target="60e70716793133e9-13" edge="1">
          <mxGeometry relative="1" as="geometry" />
        </mxCell>
        <mxCell id="60e70716793133e9-11" value="Add materials to work order processes" style="whiteSpace=wrap;html=1;rounded=0;shadow=1;labelBackgroundColor=none;strokeWidth=1;fontFamily=Verdana;fontSize=8;align=center;spacing=6;" parent="1" vertex="1">
          <mxGeometry x="190" y="410" width="120" height="40" as="geometry" />
        </mxCell>
        <mxCell id="60e70716793133e9-40" style="edgeStyle=orthogonalEdgeStyle;rounded=0;html=1;labelBackgroundColor=none;startSize=5;endArrow=classicThin;endFill=1;endSize=5;jettySize=auto;orthogonalLoop=1;strokeWidth=1;fontFamily=Verdana;fontSize=8" parent="1" source="60e70716793133e9-12" target="60e70716793133e9-13" edge="1">
          <mxGeometry relative="1" as="geometry" />
        </mxCell>
        <mxCell id="60e70716793133e9-12" value="Adjust material quantities if needed" style="whiteSpace=wrap;html=1;rounded=0;shadow=1;labelBackgroundColor=none;strokeWidth=1;fontFamily=Verdana;fontSize=8;align=center;spacing=6;" parent="1" vertex="1">
          <mxGeometry x="380" y="410" width="120" height="40" as="geometry" />
        </mxCell>
        <mxCell id="60e70716793133e9-42" style="edgeStyle=orthogonalEdgeStyle;rounded=0;html=1;labelBackgroundColor=none;startSize=5;endArrow=classicThin;endFill=1;endSize=5;jettySize=auto;orthogonalLoop=1;strokeWidth=1;fontFamily=Verdana;fontSize=8" parent="1" source="60e70716793133e9-13" target="60e70716793133e9-14" edge="1">
          <mxGeometry relative="1" as="geometry" />
        </mxCell>
        <mxCell id="60e70716793133e9-13" value="Monitor work orders" style="whiteSpace=wrap;html=1;rounded=0;shadow=1;labelBackgroundColor=none;strokeWidth=1;fontFamily=Verdana;fontSize=8;align=center;" parent="1" vertex="1">
          <mxGeometry x="280" y="500" width="120" height="40" as="geometry" />
        </mxCell>
        <mxCell id="60e70716793133e9-43" value="Yes" style="edgeStyle=orthogonalEdgeStyle;rounded=0;html=1;labelBackgroundColor=none;startSize=5;endArrow=classicThin;endFill=1;endSize=5;jettySize=auto;orthogonalLoop=1;strokeWidth=1;fontFamily=Verdana;fontSize=8" parent="1" source="60e70716793133e9-14" target="60e70716793133e9-15" edge="1">
          <mxGeometry x="-0.6667" y="10" relative="1" as="geometry">
            <mxPoint as="offset" />
          </mxGeometry>
        </mxCell>
        <mxCell id="60e70716793133e9-44" value="No" style="edgeStyle=orthogonalEdgeStyle;rounded=0;html=1;labelBackgroundColor=none;startSize=5;endArrow=classicThin;endFill=1;endSize=5;jettySize=auto;orthogonalLoop=1;strokeWidth=1;fontFamily=Verdana;fontSize=8" parent="1" source="60e70716793133e9-14" target="60e70716793133e9-16" edge="1">
          <mxGeometry x="-0.5" y="-10" relative="1" as="geometry">
            <mxPoint as="offset" />
          </mxGeometry>
        </mxCell>
        <mxCell id="60e70716793133e9-14" value="Material&amp;nbsp;&lt;div&gt;quantities not&amp;nbsp;&lt;/div&gt;&lt;div&gt;in stock?&lt;/div&gt;" style="rhombus;whiteSpace=wrap;html=1;rounded=0;shadow=1;labelBackgroundColor=none;strokeWidth=1;fontFamily=Verdana;fontSize=8;align=center;" parent="1" vertex="1">
          <mxGeometry x="290" y="570" width="100" height="60" as="geometry" />
        </mxCell>
        <mxCell id="60e70716793133e9-45" style="edgeStyle=orthogonalEdgeStyle;rounded=0;html=1;labelBackgroundColor=none;startSize=5;endArrow=classicThin;endFill=1;endSize=5;jettySize=auto;orthogonalLoop=1;strokeWidth=1;fontFamily=Verdana;fontSize=8" parent="1" source="60e70716793133e9-15" target="60e70716793133e9-16" edge="1">
          <mxGeometry relative="1" as="geometry">
            <Array as="points">
              <mxPoint x="510" y="650" />
              <mxPoint x="340" y="650" />
            </Array>
          </mxGeometry>
        </mxCell>
        <mxCell id="60e70716793133e9-15" value="Procedure or&amp;nbsp;&lt;div&gt;transfer materials&lt;/div&gt;" style="whiteSpace=wrap;html=1;rounded=0;shadow=1;labelBackgroundColor=none;strokeWidth=1;fontFamily=Verdana;fontSize=8;align=center;" parent="1" vertex="1">
          <mxGeometry x="450" y="580" width="120" height="40" as="geometry" />
        </mxCell>
        <mxCell id="60e70716793133e9-46" style="edgeStyle=orthogonalEdgeStyle;rounded=0;html=1;labelBackgroundColor=none;startSize=5;endArrow=classicThin;endFill=1;endSize=5;jettySize=auto;orthogonalLoop=1;strokeWidth=1;fontFamily=Verdana;fontSize=8" parent="1" source="60e70716793133e9-16" target="60e70716793133e9-17" edge="1">
          <mxGeometry relative="1" as="geometry" />
        </mxCell>
        <mxCell id="60e70716793133e9-16" value="Change status to&lt;div&gt;In Process&lt;/div&gt;" style="whiteSpace=wrap;html=1;rounded=0;shadow=1;labelBackgroundColor=none;strokeWidth=1;fontFamily=Verdana;fontSize=8;align=center;" parent="1" vertex="1">
          <mxGeometry x="280" y="670" width="120" height="40" as="geometry" />
        </mxCell>
        <mxCell id="60e70716793133e9-47" value="Yes" style="edgeStyle=orthogonalEdgeStyle;rounded=0;html=1;labelBackgroundColor=none;startSize=5;endArrow=classicThin;endFill=1;endSize=5;jettySize=auto;orthogonalLoop=1;strokeWidth=1;fontFamily=Verdana;fontSize=8" parent="1" source="60e70716793133e9-17" target="60e70716793133e9-18" edge="1">
          <mxGeometry x="-0.6667" y="10" relative="1" as="geometry">
            <mxPoint as="offset" />
          </mxGeometry>
        </mxCell>
        <mxCell id="60e70716793133e9-50" value="No" style="edgeStyle=orthogonalEdgeStyle;rounded=0;html=1;labelBackgroundColor=none;startSize=5;endArrow=classicThin;endFill=1;endSize=5;jettySize=auto;orthogonalLoop=1;strokeWidth=1;fontFamily=Verdana;fontSize=8" parent="1" source="60e70716793133e9-17" target="60e70716793133e9-19" edge="1">
          <mxGeometry x="-1" y="-10" relative="1" as="geometry">
            <mxPoint as="offset" />
          </mxGeometry>
        </mxCell>
        <mxCell id="60e70716793133e9-17" value="Step&amp;nbsp;&lt;div&gt;performed by&amp;nbsp;&lt;/div&gt;&lt;div&gt;outside&amp;nbsp;&lt;/div&gt;&lt;div&gt;vendor?&lt;/div&gt;" style="rhombus;whiteSpace=wrap;html=1;rounded=0;shadow=1;labelBackgroundColor=none;strokeWidth=1;fontFamily=Verdana;fontSize=8;align=center;" parent="1" vertex="1">
          <mxGeometry x="290" y="740" width="100" height="60" as="geometry" />
        </mxCell>
        <mxCell id="60e70716793133e9-48" style="edgeStyle=orthogonalEdgeStyle;rounded=0;html=1;labelBackgroundColor=none;startSize=5;endArrow=classicThin;endFill=1;endSize=5;jettySize=auto;orthogonalLoop=1;strokeWidth=1;fontFamily=Verdana;fontSize=8" parent="1" source="60e70716793133e9-18" target="60e70716793133e9-20" edge="1">
          <mxGeometry relative="1" as="geometry" />
        </mxCell>
        <mxCell id="60e70716793133e9-18" value="Add or adjust vendor costs" style="whiteSpace=wrap;html=1;rounded=0;shadow=1;labelBackgroundColor=none;strokeWidth=1;fontFamily=Verdana;fontSize=8;align=center;" parent="1" vertex="1">
          <mxGeometry x="450" y="750" width="120" height="40" as="geometry" />
        </mxCell>
        <mxCell id="60e70716793133e9-52" style="edgeStyle=orthogonalEdgeStyle;rounded=0;html=1;labelBackgroundColor=none;startSize=5;endArrow=classicThin;endFill=1;endSize=5;jettySize=auto;orthogonalLoop=1;strokeWidth=1;fontFamily=Verdana;fontSize=8" parent="1" source="60e70716793133e9-19" target="60e70716793133e9-21" edge="1">
          <mxGeometry relative="1" as="geometry" />
        </mxCell>
        <mxCell id="60e70716793133e9-19" value="Perform work&amp;nbsp;&lt;div&gt;order step&lt;/div&gt;" style="shape=trapezoid;whiteSpace=wrap;html=1;rounded=0;shadow=1;labelBackgroundColor=none;strokeWidth=1;fontFamily=Verdana;fontSize=8;align=center;flipV=1;" parent="1" vertex="1">
          <mxGeometry x="280" y="840" width="120" height="60" as="geometry" />
        </mxCell>
        <mxCell id="60e70716793133e9-49" style="edgeStyle=orthogonalEdgeStyle;rounded=0;html=1;labelBackgroundColor=none;startSize=5;endArrow=classicThin;endFill=1;endSize=5;jettySize=auto;orthogonalLoop=1;strokeWidth=1;fontFamily=Verdana;fontSize=8" parent="1" source="60e70716793133e9-20" target="60e70716793133e9-22" edge="1">
          <mxGeometry relative="1" as="geometry" />
        </mxCell>
        <mxCell id="60e70716793133e9-53" style="edgeStyle=orthogonalEdgeStyle;rounded=0;html=1;labelBackgroundColor=none;startSize=5;endArrow=classicThin;endFill=1;endSize=5;jettySize=auto;orthogonalLoop=1;strokeWidth=1;fontFamily=Verdana;fontSize=8" parent="1" source="60e70716793133e9-20" target="60e70716793133e9-27" edge="1">
          <mxGeometry relative="1" as="geometry">
            <Array as="points">
              <mxPoint x="510" y="920" />
              <mxPoint x="680" y="920" />
            </Array>
          </mxGeometry>
        </mxCell>
        <mxCell id="60e70716793133e9-20" value="Ship materials&amp;nbsp;&lt;div&gt;to vendor&lt;/div&gt;" style="rounded=1;whiteSpace=wrap;html=1;shadow=1;labelBackgroundColor=none;strokeWidth=1;fontFamily=Verdana;fontSize=8;align=center;" parent="1" vertex="1">
          <mxGeometry x="450" y="850" width="120" height="40" as="geometry" />
        </mxCell>
        <mxCell id="60e70716793133e9-51" value="Yes" style="edgeStyle=orthogonalEdgeStyle;rounded=0;html=1;labelBackgroundColor=none;startSize=5;endArrow=classicThin;endFill=1;endSize=5;jettySize=auto;orthogonalLoop=1;strokeWidth=1;fontFamily=Verdana;fontSize=8" parent="1" source="60e70716793133e9-21" target="60e70716793133e9-17" edge="1">
          <mxGeometry x="-0.6924" y="-20" relative="1" as="geometry">
            <Array as="points">
              <mxPoint x="260" y="969.9999999999998" />
              <mxPoint x="260" y="770" />
            </Array>
            <mxPoint as="offset" />
          </mxGeometry>
        </mxCell>
        <mxCell id="60e70716793133e9-54" value="No" style="edgeStyle=orthogonalEdgeStyle;rounded=0;html=1;labelBackgroundColor=none;startSize=5;endArrow=classicThin;endFill=1;endSize=5;jettySize=auto;orthogonalLoop=1;strokeWidth=1;fontFamily=Verdana;fontSize=8" parent="1" source="60e70716793133e9-21" target="60e70716793133e9-23" edge="1">
          <mxGeometry x="-1" y="-10" relative="1" as="geometry">
            <mxPoint as="offset" />
          </mxGeometry>
        </mxCell>
        <mxCell id="60e70716793133e9-21" value="Additional&amp;nbsp;&lt;div&gt;processing&amp;nbsp;&lt;/div&gt;&lt;div&gt;required?&lt;/div&gt;" style="rhombus;whiteSpace=wrap;html=1;rounded=0;shadow=1;labelBackgroundColor=none;strokeWidth=1;fontFamily=Verdana;fontSize=8;align=center;" parent="1" vertex="1">
          <mxGeometry x="290" y="940" width="100" height="60" as="geometry" />
        </mxCell>
        <mxCell id="60e70716793133e9-58" style="edgeStyle=orthogonalEdgeStyle;rounded=0;html=1;labelBackgroundColor=none;startSize=5;endArrow=classicThin;endFill=1;endSize=5;jettySize=auto;orthogonalLoop=1;strokeWidth=1;fontFamily=Verdana;fontSize=8" parent="1" source="60e70716793133e9-22" target="60e70716793133e9-24" edge="1">
          <mxGeometry relative="1" as="geometry" />
        </mxCell>
        <mxCell id="60e70716793133e9-22" value="Perform work&amp;nbsp;&lt;div&gt;order step&lt;/div&gt;" style="shape=trapezoid;whiteSpace=wrap;html=1;rounded=0;shadow=1;labelBackgroundColor=none;strokeWidth=1;fontFamily=Verdana;fontSize=8;align=center;flipV=1;" parent="1" vertex="1">
          <mxGeometry x="450" y="940" width="120" height="60" as="geometry" />
        </mxCell>
        <mxCell id="60e70716793133e9-55" style="edgeStyle=orthogonalEdgeStyle;rounded=0;html=1;labelBackgroundColor=none;startSize=5;endArrow=classicThin;endFill=1;endSize=5;jettySize=auto;orthogonalLoop=1;strokeWidth=1;fontFamily=Verdana;fontSize=8" parent="1" source="60e70716793133e9-23" target="60e70716793133e9-25" edge="1">
          <mxGeometry relative="1" as="geometry" />
        </mxCell>
        <mxCell id="60e70716793133e9-23" value="Receive info stock" style="rounded=1;whiteSpace=wrap;html=1;shadow=1;labelBackgroundColor=none;strokeWidth=1;fontFamily=Verdana;fontSize=8;align=center;" parent="1" vertex="1">
          <mxGeometry x="280" y="1040" width="120" height="40" as="geometry" />
        </mxCell>
        <mxCell id="60e70716793133e9-59" style="edgeStyle=orthogonalEdgeStyle;rounded=0;html=1;labelBackgroundColor=none;startSize=5;endArrow=classicThin;endFill=1;endSize=5;jettySize=auto;orthogonalLoop=1;strokeWidth=1;fontFamily=Verdana;fontSize=8" parent="1" source="60e70716793133e9-24" target="60e70716793133e9-26" edge="1">
          <mxGeometry relative="1" as="geometry" />
        </mxCell>
        <mxCell id="60e70716793133e9-24" value="Receive product&amp;nbsp;&lt;div&gt;from vendor&lt;/div&gt;" style="rounded=1;whiteSpace=wrap;html=1;shadow=1;labelBackgroundColor=none;strokeWidth=1;fontFamily=Verdana;fontSize=8;align=center;" parent="1" vertex="1">
          <mxGeometry x="450" y="1040" width="120" height="40" as="geometry" />
        </mxCell>
        <mxCell id="60e70716793133e9-56" style="edgeStyle=orthogonalEdgeStyle;rounded=0;html=1;labelBackgroundColor=none;startSize=5;endArrow=classicThin;endFill=1;endSize=5;jettySize=auto;orthogonalLoop=1;strokeWidth=1;fontFamily=Verdana;fontSize=8" parent="1" source="60e70716793133e9-25" target="60e70716793133e9-28" edge="1">
          <mxGeometry relative="1" as="geometry" />
        </mxCell>
        <mxCell id="60e70716793133e9-25" value="Ship product on order if needed" style="rounded=1;whiteSpace=wrap;html=1;shadow=1;labelBackgroundColor=none;strokeWidth=1;fontFamily=Verdana;fontSize=8;align=center;" parent="1" vertex="1">
          <mxGeometry x="280" y="1120" width="120" height="40" as="geometry" />
        </mxCell>
        <mxCell id="60e70716793133e9-60" value="No" style="edgeStyle=orthogonalEdgeStyle;rounded=0;html=1;labelBackgroundColor=none;startSize=5;endArrow=classicThin;endFill=1;endSize=5;jettySize=auto;orthogonalLoop=1;strokeWidth=1;fontFamily=Verdana;fontSize=8" parent="1" source="60e70716793133e9-26" target="60e70716793133e9-29" edge="1">
          <mxGeometry x="0.2" y="14" relative="1" as="geometry">
            <mxPoint x="-24" y="-10" as="offset" />
          </mxGeometry>
        </mxCell>
        <mxCell id="60e70716793133e9-61" value="Yes" style="edgeStyle=orthogonalEdgeStyle;rounded=0;html=1;labelBackgroundColor=none;startSize=5;endArrow=classicThin;endFill=1;endSize=5;jettySize=auto;orthogonalLoop=1;strokeWidth=1;fontFamily=Verdana;fontSize=8" parent="1" source="60e70716793133e9-26" target="60e70716793133e9-27" edge="1">
          <mxGeometry x="-0.6667" y="10" relative="1" as="geometry">
            <mxPoint as="offset" />
          </mxGeometry>
        </mxCell>
        <mxCell id="60e70716793133e9-26" value="Only partial&amp;nbsp;&lt;div&gt;quality&amp;nbsp;&lt;/div&gt;&lt;div&gt;received?&lt;/div&gt;" style="rhombus;whiteSpace=wrap;html=1;rounded=0;shadow=1;labelBackgroundColor=none;strokeWidth=1;fontFamily=Verdana;fontSize=8;align=center;" parent="1" vertex="1">
          <mxGeometry x="460" y="1110" width="100" height="60" as="geometry" />
        </mxCell>
        <mxCell id="60e70716793133e9-27" value="Create work&amp;nbsp;&lt;div&gt;order backorder&lt;/div&gt;" style="whiteSpace=wrap;html=1;rounded=0;shadow=1;labelBackgroundColor=none;strokeWidth=1;fontFamily=Verdana;fontSize=8;align=center;" parent="1" vertex="1">
          <mxGeometry x="620" y="1120" width="120" height="40" as="geometry" />
        </mxCell>
        <mxCell id="60e70716793133e9-57" style="edgeStyle=orthogonalEdgeStyle;rounded=0;html=1;labelBackgroundColor=none;startSize=5;endArrow=classicThin;endFill=1;endSize=5;jettySize=auto;orthogonalLoop=1;strokeWidth=1;fontFamily=Verdana;fontSize=8" parent="1" source="60e70716793133e9-28" target="60e70716793133e9-30" edge="1">
          <mxGeometry relative="1" as="geometry" />
        </mxCell>
        <mxCell id="60e70716793133e9-28" value="Change status to&lt;div&gt;Complete&lt;/div&gt;" style="whiteSpace=wrap;html=1;rounded=0;shadow=1;labelBackgroundColor=none;strokeWidth=1;fontFamily=Verdana;fontSize=8;align=center;" parent="1" vertex="1">
          <mxGeometry x="280" y="1200" width="120" height="40" as="geometry" />
        </mxCell>
        <mxCell id="60e70716793133e9-62" style="edgeStyle=orthogonalEdgeStyle;rounded=0;html=1;labelBackgroundColor=none;startSize=5;endArrow=classicThin;endFill=1;endSize=5;jettySize=auto;orthogonalLoop=1;strokeWidth=1;fontFamily=Verdana;fontSize=8" parent="1" source="60e70716793133e9-29" target="60e70716793133e9-21" edge="1">
          <mxGeometry relative="1" as="geometry">
            <Array as="points">
              <mxPoint x="430" y="1220" />
              <mxPoint x="430" y="920" />
              <mxPoint x="340" y="920" />
            </Array>
          </mxGeometry>
        </mxCell>
        <mxCell id="60e70716793133e9-29" value="Pay vendor invoice" style="rounded=1;whiteSpace=wrap;html=1;shadow=1;labelBackgroundColor=none;strokeWidth=1;fontFamily=Verdana;fontSize=8;align=center;" parent="1" vertex="1">
          <mxGeometry x="450" y="1200" width="120" height="40" as="geometry" />
        </mxCell>
        <mxCell id="60e70716793133e9-30" value="End" style="strokeWidth=1;html=1;shape=mxgraph.flowchart.terminator;whiteSpace=wrap;rounded=0;shadow=1;labelBackgroundColor=none;fontFamily=Verdana;fontSize=8;align=center;" parent="1" vertex="1">
          <mxGeometry x="310" y="1290" width="60" height="30" as="geometry" />
        </mxCell>
        <mxCell id="MqRCWIQsL3sCiBY5EVq8-1" value="開始符號" style="rounded=1;whiteSpace=wrap;html=1;" vertex="1" parent="1">
          <mxGeometry x="-130" y="80" width="120" height="60" as="geometry" />
        </mxCell>
        <mxCell id="MqRCWIQsL3sCiBY5EVq8-5" value="結束符號" style="rounded=1;whiteSpace=wrap;html=1;" vertex="1" parent="1">
          <mxGeometry x="-130" y="610" width="120" height="60" as="geometry" />
        </mxCell>
        <mxCell id="MqRCWIQsL3sCiBY5EVq8-6" value="資料匯入 抓要的變項" style="rounded=0;whiteSpace=wrap;html=1;" vertex="1" parent="1">
          <mxGeometry x="-8" y="200" width="120" height="60" as="geometry" />
        </mxCell>
        <mxCell id="MqRCWIQsL3sCiBY5EVq8-7" value="資料清理 下條件" style="rounded=0;whiteSpace=wrap;html=1;fillColor=#d5e8d4;strokeColor=#82b366;" vertex="1" parent="1">
          <mxGeometry x="-8" y="280" width="120" height="60" as="geometry" />
        </mxCell>
        <mxCell id="MqRCWIQsL3sCiBY5EVq8-8" value="描述性統計分析" style="rounded=0;whiteSpace=wrap;html=1;fillColor=#dae8fc;strokeColor=#6c8ebf;" vertex="1" parent="1">
          <mxGeometry x="-8" y="360" width="120" height="60" as="geometry" />
        </mxCell>
        <mxCell id="MqRCWIQsL3sCiBY5EVq8-9" value="模型建立 (模型選擇與建立)迴歸分析 假設檢定" style="rounded=0;whiteSpace=wrap;html=1;fillColor=#e1d5e7;strokeColor=#9673a6;" vertex="1" parent="1">
          <mxGeometry x="-8" y="440" width="120" height="60" as="geometry" />
        </mxCell>
        <mxCell id="MqRCWIQsL3sCiBY5EVq8-10" value="視覺化 (圖表)" style="rounded=0;whiteSpace=wrap;html=1;fillColor=#f8cecc;strokeColor=#b85450;" vertex="1" parent="1">
          <mxGeometry x="-8" y="520" width="120" height="60" as="geometry" />
        </mxCell>
        <mxCell id="MqRCWIQsL3sCiBY5EVq8-11" value="結果輸出階段" style="shape=callout;whiteSpace=wrap;html=1;perimeter=calloutPerimeter;base=20;position2=1;size=10;position=0.5;" vertex="1" parent="1">
          <mxGeometry x="-130" y="480" width="120" height="30" as="geometry" />
        </mxCell>
        <mxCell id="MqRCWIQsL3sCiBY5EVq8-12" value="資料分析階段" style="shape=callout;whiteSpace=wrap;html=1;perimeter=calloutPerimeter;base=20;position2=1;size=10;position=0.5;" vertex="1" parent="1">
          <mxGeometry x="-130" y="400" width="120" height="30" as="geometry" />
        </mxCell>
        <mxCell id="MqRCWIQsL3sCiBY5EVq8-13" value="資料準備階段" style="shape=callout;whiteSpace=wrap;html=1;perimeter=calloutPerimeter;base=20;position2=1;size=10;position=0.5;" vertex="1" parent="1">
          <mxGeometry x="-130" y="170" width="120" height="30" as="geometry" />
        </mxCell>
        <mxCell id="MqRCWIQsL3sCiBY5EVq8-20" value="" style="edgeStyle=none;curved=1;rounded=0;orthogonalLoop=1;jettySize=auto;html=1;fontSize=12;entryX=0.5;entryY=0;entryDx=0;entryDy=0;" edge="1" parent="1" source="MqRCWIQsL3sCiBY5EVq8-15" target="MqRCWIQsL3sCiBY5EVq8-16">
          <mxGeometry relative="1" as="geometry" />
        </mxCell>
        <mxCell id="MqRCWIQsL3sCiBY5EVq8-15" value="選取黑灰白有值的筆數&lt;div&gt;-&amp;gt;n=427&lt;/div&gt;&lt;div&gt;microbiota&lt;/div&gt;" style="rounded=0;whiteSpace=wrap;html=1;fillColor=#d5e8d4;strokeColor=#82b366;" vertex="1" parent="1">
          <mxGeometry x="-370" y="170" width="120" height="60" as="geometry" />
        </mxCell>
        <mxCell id="MqRCWIQsL3sCiBY5EVq8-18" value="" style="edgeStyle=none;curved=1;rounded=0;orthogonalLoop=1;jettySize=auto;html=1;fontSize=12;startSize=8;endSize=8;" edge="1" parent="1" source="MqRCWIQsL3sCiBY5EVq8-16" target="MqRCWIQsL3sCiBY5EVq8-17">
          <mxGeometry relative="1" as="geometry" />
        </mxCell>
        <mxCell id="MqRCWIQsL3sCiBY5EVq8-16" value="&lt;div&gt;&lt;span style=&quot;background-color: transparent; color: light-dark(rgb(0, 0, 0), rgb(255, 255, 255));&quot;&gt;有&lt;/span&gt;收案日記錄&lt;span style=&quot;background-color: transparent; color: light-dark(rgb(0, 0, 0), rgb(255, 255, 255));&quot;&gt;的&lt;/span&gt;&lt;span style=&quot;background-color: transparent; color: light-dark(rgb(0, 0, 0), rgb(255, 255, 255));&quot;&gt;筆數&lt;/span&gt;&lt;/div&gt;&lt;div&gt;-&amp;gt;n=423&lt;/div&gt;&lt;div&gt;testdate&lt;/div&gt;" style="rounded=0;whiteSpace=wrap;html=1;fillColor=#d5e8d4;strokeColor=#82b366;" vertex="1" parent="1">
          <mxGeometry x="-370" y="290" width="120" height="60" as="geometry" />
        </mxCell>
        <mxCell id="MqRCWIQsL3sCiBY5EVq8-26" value="" style="edgeStyle=none;curved=1;rounded=0;orthogonalLoop=1;jettySize=auto;html=1;fontSize=12;startSize=8;endSize=8;" edge="1" parent="1" source="MqRCWIQsL3sCiBY5EVq8-17" target="MqRCWIQsL3sCiBY5EVq8-25">
          <mxGeometry relative="1" as="geometry" />
        </mxCell>
        <mxCell id="MqRCWIQsL3sCiBY5EVq8-17" value="&lt;div&gt;刪除收案日在2021/6/30之後的筆數&lt;/div&gt;&lt;div&gt;-&amp;gt;n=377&lt;/div&gt;&lt;div&gt;testdate&lt;/div&gt;" style="rounded=0;whiteSpace=wrap;html=1;fillColor=#d5e8d4;strokeColor=#82b366;" vertex="1" parent="1">
          <mxGeometry x="-370" y="410" width="120" height="60" as="geometry" />
        </mxCell>
        <mxCell id="MqRCWIQsL3sCiBY5EVq8-28" value="" style="edgeStyle=none;curved=1;rounded=0;orthogonalLoop=1;jettySize=auto;html=1;fontSize=12;startSize=8;endSize=8;" edge="1" parent="1" source="MqRCWIQsL3sCiBY5EVq8-25" target="MqRCWIQsL3sCiBY5EVq8-27">
          <mxGeometry relative="1" as="geometry" />
        </mxCell>
        <mxCell id="MqRCWIQsL3sCiBY5EVq8-25" value="&lt;div&gt;刪除&lt;span style=&quot;background-color: transparent; color: light-dark(rgb(0, 0, 0), rgb(255, 255, 255));&quot;&gt;eGFR&lt;/span&gt;&lt;/div&gt;&lt;div&gt;&amp;nbsp;&amp;lt;15的筆數&lt;/div&gt;&lt;div&gt;-&amp;gt;n=377&lt;/div&gt;&lt;div&gt;eGFR_MDRD&lt;/div&gt;" style="rounded=0;whiteSpace=wrap;html=1;fillColor=#d5e8d4;strokeColor=#82b366;" vertex="1" parent="1">
          <mxGeometry x="-370" y="520" width="120" height="60" as="geometry" />
        </mxCell>
        <mxCell id="MqRCWIQsL3sCiBY5EVq8-30" value="" style="edgeStyle=none;curved=1;rounded=0;orthogonalLoop=1;jettySize=auto;html=1;fontSize=12;startSize=8;endSize=8;" edge="1" parent="1" source="MqRCWIQsL3sCiBY5EVq8-27" target="MqRCWIQsL3sCiBY5EVq8-29">
          <mxGeometry relative="1" as="geometry" />
        </mxCell>
        <mxCell id="MqRCWIQsL3sCiBY5EVq8-27" value="&lt;div&gt;處理&lt;/div&gt;&lt;div&gt;中風(Stroke)&lt;/div&gt;&lt;div&gt;急性心肌梗塞(AMI)&lt;/div&gt;&lt;div&gt;心臟驟停(Cardiac arrest)&lt;/div&gt;&lt;div&gt;心因性休克(Cardiogenic shock)&lt;/div&gt;&lt;div&gt;心臟衰竭(CHF)&lt;/div&gt;&lt;div&gt;透析(Dialysis)&lt;/div&gt;&lt;div&gt;冠狀動脈繞道手術(CABG)&lt;/div&gt;&lt;div&gt;冠狀動脈氣球擴張術(PTCA)&lt;/div&gt;&lt;div&gt;心房顫動(AF)&lt;/div&gt;&lt;div&gt;末期腎臟病(ESRD)&lt;/div&gt;" style="rounded=0;whiteSpace=wrap;html=1;fillColor=#d5e8d4;strokeColor=#82b366;" vertex="1" parent="1">
          <mxGeometry x="-460" y="640" width="310" height="180" as="geometry" />
        </mxCell>
        <mxCell id="MqRCWIQsL3sCiBY5EVq8-29" value="頻率分析" style="whiteSpace=wrap;html=1;aspect=fixed;fillColor=#dae8fc;strokeColor=#6c8ebf;" vertex="1" parent="1">
          <mxGeometry x="-345" y="860" width="80" height="80" as="geometry" />
        </mxCell>
        <mxCell id="MqRCWIQsL3sCiBY5EVq8-33" value="00" style="text;html=1;align=center;verticalAlign=middle;whiteSpace=wrap;rounded=0;fontSize=16;" vertex="1" parent="1">
          <mxGeometry x="-345" y="120" width="60" height="30" as="geometry" />
        </mxCell>
        <mxCell id="MqRCWIQsL3sCiBY5EVq8-35" value="" style="rounded=0;whiteSpace=wrap;html=1;fillColor=none;" vertex="1" parent="1">
          <mxGeometry x="-876" y="140" width="386" height="810" as="geometry" />
        </mxCell>
        <mxCell id="MqRCWIQsL3sCiBY5EVq8-36" value="03" style="text;html=1;align=center;verticalAlign=middle;whiteSpace=wrap;rounded=0;fontSize=16;" vertex="1" parent="1">
          <mxGeometry x="-701" y="120" width="60" height="30" as="geometry" />
        </mxCell>
        <mxCell id="MqRCWIQsL3sCiBY5EVq8-39" value="" style="edgeStyle=none;curved=1;rounded=0;orthogonalLoop=1;jettySize=auto;html=1;fontSize=12;startSize=8;endSize=8;" edge="1" parent="1" source="MqRCWIQsL3sCiBY5EVq8-37" target="MqRCWIQsL3sCiBY5EVq8-38">
          <mxGeometry relative="1" as="geometry" />
        </mxCell>
        <mxCell id="MqRCWIQsL3sCiBY5EVq8-37" value="黑、灰、白分組&lt;div&gt;microbiota&lt;/div&gt;" style="rounded=0;whiteSpace=wrap;html=1;fillColor=#d5e8d4;strokeColor=#82b366;" vertex="1" parent="1">
          <mxGeometry x="-742" y="170" width="120" height="60" as="geometry" />
        </mxCell>
        <mxCell id="MqRCWIQsL3sCiBY5EVq8-38" value="設定4個outcome&lt;br&gt;outcome1：中風+心房顫動+心衰+急性心肌梗塞+冠狀動脈繞道手術&lt;br&gt;outcome3：中風+急性心肌梗塞+冠狀動脈繞道手術+死亡&lt;br&gt;outcome4：中風+心房顫動+急性心肌梗塞+冠狀動脈繞道手術+死亡&lt;br&gt;outcome5：中風+心衰+急性心肌梗塞+冠狀動脈繞道手術+死亡" style="rounded=0;whiteSpace=wrap;html=1;align=left;fillColor=#d5e8d4;strokeColor=#82b366;" vertex="1" parent="1">
          <mxGeometry x="-867" y="290" width="370" height="80" as="geometry" />
        </mxCell>
        <mxCell id="MqRCWIQsL3sCiBY5EVq8-40" value="&lt;div&gt;描述性統計：缺失值數量、平均值、中位數&lt;/div&gt;&lt;div&gt;變項：&lt;span style=&quot;font-family: SFMono-Regular, Menlo, Consolas, &amp;quot;PT Mono&amp;quot;, &amp;quot;Liberation Mono&amp;quot;, Courier, monospace; line-height: normal; background: rgba(135, 131, 120, 0.15); color: rgb(235, 87, 87); border-radius: 4px; font-size: 85%; padding: 0.2em 0.4em;&quot; class=&quot;notion-enable-hover&quot; spellcheck=&quot;false&quot; data-token-index=&quot;0&quot;&gt;age&lt;/span&gt;&lt;span style=&quot;background-color: transparent; color: light-dark(rgb(0, 0, 0), rgb(255, 255, 255));&quot;&gt;, &lt;/span&gt;&lt;span style=&quot;font-family: SFMono-Regular, Menlo, Consolas, &amp;quot;PT Mono&amp;quot;, &amp;quot;Liberation Mono&amp;quot;, Courier, monospace; line-height: normal; background: rgba(135, 131, 120, 0.15); color: rgb(235, 87, 87); border-radius: 4px; font-size: 85%; padding: 0.2em 0.4em;&quot; class=&quot;notion-enable-hover&quot; spellcheck=&quot;false&quot; data-token-index=&quot;2&quot;&gt;BMI&lt;/span&gt;&lt;span style=&quot;background-color: transparent; color: light-dark(rgb(0, 0, 0), rgb(255, 255, 255));&quot;&gt;, &lt;/span&gt;&lt;span style=&quot;font-family: SFMono-Regular, Menlo, Consolas, &amp;quot;PT Mono&amp;quot;, &amp;quot;Liberation Mono&amp;quot;, Courier, monospace; line-height: normal; background: rgba(135, 131, 120, 0.15); color: rgb(235, 87, 87); border-radius: 4px; font-size: 85%; padding: 0.2em 0.4em;&quot; class=&quot;notion-enable-hover&quot; spellcheck=&quot;false&quot; data-token-index=&quot;4&quot;&gt;SBP&lt;/span&gt;&lt;span style=&quot;background-color: transparent; color: light-dark(rgb(0, 0, 0), rgb(255, 255, 255));&quot;&gt;, &lt;/span&gt;&lt;span style=&quot;font-family: SFMono-Regular, Menlo, Consolas, &amp;quot;PT Mono&amp;quot;, &amp;quot;Liberation Mono&amp;quot;, Courier, monospace; line-height: normal; background: rgba(135, 131, 120, 0.15); color: rgb(235, 87, 87); border-radius: 4px; font-size: 85%; padding: 0.2em 0.4em;&quot; class=&quot;notion-enable-hover&quot; spellcheck=&quot;false&quot; data-token-index=&quot;6&quot;&gt;DBP_1&lt;/span&gt;&lt;span style=&quot;background-color: transparent; color: light-dark(rgb(0, 0, 0), rgb(255, 255, 255));&quot;&gt;, &lt;/span&gt;&lt;span style=&quot;font-family: SFMono-Regular, Menlo, Consolas, &amp;quot;PT Mono&amp;quot;, &amp;quot;Liberation Mono&amp;quot;, Courier, monospace; line-height: normal; background: rgba(135, 131, 120, 0.15); color: rgb(235, 87, 87); border-radius: 4px; font-size: 85%; padding: 0.2em 0.4em;&quot; class=&quot;notion-enable-hover&quot; spellcheck=&quot;false&quot; data-token-index=&quot;8&quot;&gt;cre_1&lt;/span&gt;&lt;span style=&quot;background-color: transparent; color: light-dark(rgb(0, 0, 0), rgb(255, 255, 255));&quot;&gt;, &lt;/span&gt;&lt;span style=&quot;font-family: SFMono-Regular, Menlo, Consolas, &amp;quot;PT Mono&amp;quot;, &amp;quot;Liberation Mono&amp;quot;, Courier, monospace; line-height: normal; background: rgba(135, 131, 120, 0.15); color: rgb(235, 87, 87); border-radius: 4px; font-size: 85%; padding: 0.2em 0.4em;&quot; class=&quot;notion-enable-hover&quot; spellcheck=&quot;false&quot; data-token-index=&quot;10&quot;&gt;ALD&lt;/span&gt;&lt;span style=&quot;background-color: transparent; color: light-dark(rgb(0, 0, 0), rgb(255, 255, 255));&quot;&gt;, &lt;/span&gt;&lt;span style=&quot;font-family: SFMono-Regular, Menlo, Consolas, &amp;quot;PT Mono&amp;quot;, &amp;quot;Liberation Mono&amp;quot;, Courier, monospace; line-height: normal; background: rgba(135, 131, 120, 0.15); color: rgb(235, 87, 87); border-radius: 4px; font-size: 85%; padding: 0.2em 0.4em;&quot; class=&quot;notion-enable-hover&quot; spellcheck=&quot;false&quot; data-token-index=&quot;12&quot;&gt;Plasma&lt;/span&gt;&lt;span style=&quot;background-color: transparent; color: light-dark(rgb(0, 0, 0), rgb(255, 255, 255));&quot;&gt;, &lt;/span&gt;&lt;span style=&quot;font-family: SFMono-Regular, Menlo, Consolas, &amp;quot;PT Mono&amp;quot;, &amp;quot;Liberation Mono&amp;quot;, Courier, monospace; line-height: normal; background: rgba(135, 131, 120, 0.15); color: rgb(235, 87, 87); border-radius: 4px; font-size: 85%; padding: 0.2em 0.4em;&quot; class=&quot;notion-enable-hover&quot; spellcheck=&quot;false&quot; data-token-index=&quot;14&quot;&gt;eGFR&lt;/span&gt;&lt;/div&gt;&lt;p class=&quot;MsoNormal&quot;&gt;&lt;span lang=&quot;EN-US&quot;&gt;&lt;/span&gt;&lt;/p&gt;" style="rounded=0;whiteSpace=wrap;html=1;fillColor=#dae8fc;strokeColor=#6c8ebf;" vertex="1" parent="1">
          <mxGeometry x="-860" y="420" width="320" height="60" as="geometry" />
        </mxCell>
        <mxCell id="MqRCWIQsL3sCiBY5EVq8-41" value="&lt;span style=&quot;&quot; data-token-index=&quot;0&quot; class=&quot;notion-enable-hover&quot;&gt;單變數檢定&lt;/span&gt;&lt;div&gt;&lt;span style=&quot;&quot; data-token-index=&quot;0&quot; class=&quot;notion-enable-hover&quot;&gt;變項：&lt;span data-token-index=&quot;1&quot; spellcheck=&quot;false&quot; class=&quot;notion-enable-hover&quot; style=&quot;font-family: SFMono-Regular, Menlo, Consolas, &amp;quot;PT Mono&amp;quot;, &amp;quot;Liberation Mono&amp;quot;, Courier, monospace; line-height: normal; background: rgba(135, 131, 120, 0.15); color: rgb(235, 87, 87); border-radius: 4px; font-size: 10.2px; padding: 0.2em 0.4em;&quot;&gt;BMI&lt;/span&gt;,&amp;nbsp;&lt;span data-token-index=&quot;3&quot; spellcheck=&quot;false&quot; class=&quot;notion-enable-hover&quot; style=&quot;font-family: SFMono-Regular, Menlo, Consolas, &amp;quot;PT Mono&amp;quot;, &amp;quot;Liberation Mono&amp;quot;, Courier, monospace; line-height: normal; background: rgba(135, 131, 120, 0.15); color: rgb(235, 87, 87); border-radius: 4px; font-size: 10.2px; padding: 0.2em 0.4em;&quot;&gt;SBP&lt;/span&gt;,&amp;nbsp;&lt;span data-token-index=&quot;5&quot; spellcheck=&quot;false&quot; class=&quot;notion-enable-hover&quot; style=&quot;font-family: SFMono-Regular, Menlo, Consolas, &amp;quot;PT Mono&amp;quot;, &amp;quot;Liberation Mono&amp;quot;, Courier, monospace; line-height: normal; background: rgba(135, 131, 120, 0.15); color: rgb(235, 87, 87); border-radius: 4px; font-size: 10.2px; padding: 0.2em 0.4em;&quot;&gt;DBP_1&lt;/span&gt;&lt;br&gt;檢查變數（&lt;span style=&quot;font-family: SFMono-Regular, Menlo, Consolas, &amp;quot;PT Mono&amp;quot;, &amp;quot;Liberation Mono&amp;quot;, Courier, monospace; line-height: normal; background: rgba(135, 131, 120, 0.15); color: rgb(235, 87, 87); border-radius: 4px; font-size: 85%; padding: 0.2em 0.4em;&quot; data-token-index=&quot;1&quot; spellcheck=&quot;false&quot; class=&quot;notion-enable-hover&quot;&gt;BMI&lt;/span&gt;, &lt;span style=&quot;font-family: SFMono-Regular, Menlo, Consolas, &amp;quot;PT Mono&amp;quot;, &amp;quot;Liberation Mono&amp;quot;, Courier, monospace; line-height: normal; background: rgba(135, 131, 120, 0.15); color: rgb(235, 87, 87); border-radius: 4px; font-size: 85%; padding: 0.2em 0.4em;&quot; data-token-index=&quot;3&quot; spellcheck=&quot;false&quot; class=&quot;notion-enable-hover&quot;&gt;SBP&lt;/span&gt;, &lt;span style=&quot;font-family: SFMono-Regular, Menlo, Consolas, &amp;quot;PT Mono&amp;quot;, &amp;quot;Liberation Mono&amp;quot;, Courier, monospace; line-height: normal; background: rgba(135, 131, 120, 0.15); color: rgb(235, 87, 87); border-radius: 4px; font-size: 85%; padding: 0.2em 0.4em;&quot; data-token-index=&quot;5&quot; spellcheck=&quot;false&quot; class=&quot;notion-enable-hover&quot;&gt;DBP_1&lt;/span&gt;）的常態性&lt;/span&gt;&lt;/div&gt;" style="rounded=0;whiteSpace=wrap;html=1;fillColor=#e1d5e7;strokeColor=#9673a6;align=left;" vertex="1" parent="1">
          <mxGeometry x="-860" y="500" width="190" height="60" as="geometry" />
        </mxCell>
        <mxCell id="MqRCWIQsL3sCiBY5EVq8-42" value="繪製變數（&lt;span data-token-index=&quot;1&quot; spellcheck=&quot;false&quot; class=&quot;notion-enable-hover&quot; style=&quot;font-family: SFMono-Regular, Menlo, Consolas, &amp;quot;PT Mono&amp;quot;, &amp;quot;Liberation Mono&amp;quot;, Courier, monospace; line-height: normal; background: rgba(135, 131, 120, 0.15); color: rgb(235, 87, 87); border-radius: 4px; font-size: 10.2px; padding: 0.2em 0.4em;&quot;&gt;BMI&lt;/span&gt;,&amp;nbsp;&lt;span data-token-index=&quot;3&quot; spellcheck=&quot;false&quot; class=&quot;notion-enable-hover&quot; style=&quot;font-family: SFMono-Regular, Menlo, Consolas, &amp;quot;PT Mono&amp;quot;, &amp;quot;Liberation Mono&amp;quot;, Courier, monospace; line-height: normal; background: rgba(135, 131, 120, 0.15); color: rgb(235, 87, 87); border-radius: 4px; font-size: 10.2px; padding: 0.2em 0.4em;&quot;&gt;SBP&lt;/span&gt;,&amp;nbsp;&lt;span data-token-index=&quot;5&quot; spellcheck=&quot;false&quot; class=&quot;notion-enable-hover&quot; style=&quot;font-family: SFMono-Regular, Menlo, Consolas, &amp;quot;PT Mono&amp;quot;, &amp;quot;Liberation Mono&amp;quot;, Courier, monospace; line-height: normal; background: rgba(135, 131, 120, 0.15); color: rgb(235, 87, 87); border-radius: 4px; font-size: 10.2px; padding: 0.2em 0.4em;&quot;&gt;DBP_1&lt;/span&gt;）的直方圖。" style="rounded=0;whiteSpace=wrap;html=1;fillColor=#f8cecc;strokeColor=#b85450;align=left;" vertex="1" parent="1">
          <mxGeometry x="-860" y="580" width="120" height="60" as="geometry" />
        </mxCell>
      </root>
    </mxGraphModel>
  </diagram>
</mxfile>
